<?xml version="1.0" encoding="UTF-8"?>
<svg id="Layer_2" data-name="Layer 2" xmlns="http://www.w3.org/2000/svg" viewBox="0 0 436.4 196.57">
  <defs>
    <style>
      .cls-1 {
        fill: #fff;
      }
    </style>
  </defs>
  <g id="Layer_1-2" data-name="Layer 1">
    <g>
      <path class="cls-1" d="M34.79,102.51C21.32,65.41,5.36,21.13.22,5.64-.21,4.29-.01,2.94.83,1.79S2.89,0,4.31,0h41.82c2.23,0,4.08,1.72,4.25,3.95l5.67,67.07c.13,1.69,1.65,2.94,3.34,2.94s3.21-1.22,3.34-2.94L68.37,3.95c.2-2.23,2.06-3.95,4.29-3.95h41.48c1.42,0,2.67.64,3.48,1.82.84,1.18,1.01,2.56.54,3.92l-34.19,95.82c-.17.47-.24.91-.24,1.42v89.27c0,2.36-1.92,4.29-4.29,4.29h-40.1c-2.36,0-4.29-1.92-4.29-4.29v-88.3c0-.51-.07-.98-.27-1.45Z"/>
      <path class="cls-1" d="M432.12,0h-40.06c-2.36,0-4.29,1.92-4.29,4.29v45.26c1.69,1.11,3.51,2.27,5.48,3.56-1.98.75,3.1,1.87,2.09,2.63,1.24,1.58,4.62,4.34,6.14,6.46.41.51.85,1.19,1.49,1.47.16.42-.79.81.19,1.15,2.85,1.75.84.46,1.62,2.29-.3.43-1.99-.86-1.25-.04.32,1.21.81,2.82-.23,3.81,1.76,1.78,1.49,4.03,1.06,5.46-.48.22-1.5-2.9-.91-.79,1.83,4.76-1.61,8.89,2.17,12.59.87.86-1.4-.13-.46.94,1.2,2.7,4.87,10.25,2.28,10.87-.28,2.84,2.56,5.79,2.77,8.78.37.42-1.63,1.38-.43,1.35.15-.11,1.1,2.24,1,3.04-2.12-1.54,2.65,7.12-.04,4.67-.16.4,2.12,3.04.53,2.32-.16-.04.07,1.6-.25,1.29-.19-.08-.19-.06,0,.16.79,1.45-1.34.63.19,2.74.5.91.22.68-.01,1.42.43.89.65,1.04-.23,1.23,1.4,2.36-.04.82-.33,1.33.63,3.55-.59,6.23-.28,8.67.51,1.22-.58.32-.35,1.16.55.91.24,1.61-.64.54.41.65.43,5.4-.38,3.7-.17.21.17,4.7-.36,2.24-.27-.68-.55-3.85-.49-.06.66,4.41-.77.39-.94,3.36-.23,1.39-.58,4.19-.92,1.95-1.22,5.3-14.24,15-14.57,8.06,1.77-1.93-.81-.43-.07-1.45-5.7-2.57,8.84-4.95,9.92-7.14.96-.13,1.06-9.27-3.22-6.26-3.55,3.3-1.39,2.85-2.81,6.16-2.64,4.65-5.75,2.81-4.86-2.02-.18.28-.27-3.14.17-3.4,1.1-2.44,4.5-5.15,5.02-7-2.14,1.18-.29-.44.78-1.04-2.3-.33,2.35-2.23-.53-1.65-.38-.6,1.13-1.35,1.22-1.85-1.52.03.4-1.82-.51-1.9-.84.06.43-1.31-.41-1.64-1.23-.04-.93-1.56-1.58-1.77-.67.11.61-1.52-.44-.79-.25.23.56-1.72-.11-1.09-.79.6.09-1.18-.2-1.47-.96,1.41-2.03-1.91-1.38-2.64-.78.16-.64-.73-1.23-.41-.32-.05,1.13-2.43-.46-.78-.87-.05.53-.95-.38-1-.85.09.56-1.26-.2-1.29-.6-.14.37-1.21-.6-.96-1.22.51-.03-6.39-1.01-5.01-.18-.69,2.06-6.28-.04-3.45-.13-.49,1.42-3.12.64-2.94-.45.13-.19-.72-.2-1.03-2.08,1.99.45-4.64.31-5.11-1.53,2.14-1.05-1.26-.79-2.44-1.52-.17,0-.69.07-1.99-1.72.76-.27-3.75-.93-4.9-.05.04-.08.07-.13.11v102.56c0,2.36,1.92,4.29,4.29,4.29h40.06c2.36,0,4.29-1.92,4.29-4.29V4.29C436.4,1.92,434.48,0,432.12,0Z"/>
      <path class="cls-1" d="M337.83,196.44c.18-.33.28-.62.04-.77-1.07-.02.16-.73-.35-1.13.32-.78-.51-1.95.31-2.73-.16-.11-.69-.36-.4-.54.48-.72-.82.17-.28-1.1.16-.64.14-.74-.11-.53-1.15.51.24-1.07-.36-.89-.93.54-.52-.31-.06-.8.73-1.23-1.14.2-.41-1.01-.06-1.55-1.33-3.62-1.13-5.36-.39.02-.81.42-.63-.45.08-.74-.9.2-.91-.94-.69-.22.95-3.05-.18-2.12-1.44,1,.08-1.23-.86-.98-1.07.22.79-1.65-1-.34-.69-.14,1.46-2.7-.29-1.98.82-2.68-1.7-3-.76-5.46-2.1.78,1.29-2.76.26-2.71-1.42,1.53.13-2.92-.26-2.76-.05-1.03,1.22-2.3,1.68-3.62-1.28.69-.34-.55.13-.83-.37-.39-.5-.29.14-.88-1.97.03,1.2-1.28.46-1.79-.67-.48,1.32-1.99.33-2.03-.73-.01.86-2.12.18-1.8-1.65,1.32,1.76-2.82-.53-1.03.97-1.18-1.01.18-.53-.7.76-3.11.46-5.4,1.69-8.51-.34-.37-2.11,2.36-1.42.89.07-.52,2.02-3.25,1.08-2.82-1.34.68-.24-.65-.08-1.09-.5-.19-1.22.47-.49-.84.45-.85-.62-.6.3-1.57,1.01-1.24-1.18,0-.03-1.53.93-1.18-.45-.48.01-1.32.63-.73-.51-.78.09-1.37.83-.59,0-1.12.36-1.63.15-.19.89-.89.46-1.03-.75-.36,1.12-1.46.98-2.02.23-.46-1.61.81-1.44.16,2.93-2.13-.09-.52,1.57-2.5.86-1.25.58-.61-.01-.94-.08-.19.35-.61.89-.88,1.08-1.14-1.84.29,0-1.55.8-4.39,3.74-11.18,4.93-17.95v-4.5c-1.67,1.48.49-4.79-.11-3.94-1.88,4.45-1.31-1.54-.78-3.16-2.46,3.59-1.54,1.36-.73-1.14.83-3.67-.81,2.66-1.89.53,1.88-2.62.3-6.46.26-7.19-.45,1.3-1.03-1.54-.85.6.23,2.45-.97-.05-1.37,1.72-.72,1.32-1.53-1.21-1.39,1.28-.11,1.16-.04,1.27-.41,1.83-.39.46-.17-3.05-.54-1.53-.32,1.18.06,4.27-1,1.79-1.22-2.01-.4,3.11-1.28,3.51-.54.4.06-2.27-.42-.85-2.62,2.95.06,10.17-3.56,11.25-.55.13-1.31,4.89-1.48,1.52-1.37,2.85-2.99,3.79-4.32,5.55-.88.85-2.12,3.33-3.42,4.87-1.42,2.2,1.93,4.34,3.4,6.3.04,3.32,1.74,10.55-2.49,8.21,0,.02-.06,0-.19-.11.07.04.13.07.19.11.02-.07-.38-.54-.57-.61-.1-.32.31-1.03-.25-.54-3.44-10.79-7.05.62-4.1,4.02-.08-.06,5.87.97,5.57,2.57.57.17,3.02.14,2.31,1.13-.34-.39.34.67,0,.64-.07.46.87-.46.88.33-.53.41,1.08.08.64.79-.12-.23-.58-.75-.21.04,1.7.85-2.59,1.87-1.16,2.64,3.26,5.65-6.65,3.43-8.44,1.33-1.38-.68.27-.34-.66-.66-.54-.1-1.35-1.06-.16-.31-1.94-1.57-7.45-5.53-6.43-9.9-1.56,1.98-1-10.63-2.67-10.17,2.43-16.95,10.33-31.32,16.61-46.26-3.08,1.65,2.79-3.79.74-5.1.45-.49.55-1.05.76-1.57.21-.94-1.67,1.24-.45-.59,1.91-2.23-.79-.11.24-1.4,1.46-1.33.05-.72.45-1.49.79-1.05-.53-.15-.24-.66.43-.77,2.69-1.83.7-1.64.32-.57,1.08-.57.17-.92,8.23-10.87,18.91-16.85,28.98-25.39-.97-6.13,7.83-9.91,12.11-12.63,1.24-.66,3.29,1.71,4.07,1.09.62.43.76,1.52,1.64.6-.1,1.16-.27.93,1.28.56.18.2-1.11.55-.33.56.56.06-.57,1.22.98,1.04,1.55,5.64,3.64,9.49,6.41,12.62V4.29C377.69,1.92,375.77,0,373.4,0h-113.04c-2.36,0-4.29,1.92-4.29,4.29v40.06c0,2.36,1.92,4.29,4.29,4.29h27.91c2.36,0,4.29,1.96,4.29,4.29v139.33c0,2.36,1.92,4.29,4.29,4.29h40.06c.31,0,.62-.04.91-.1Z"/>
      <path class="cls-1" d="M181.28,48.64h64.4c2.36,0,4.29-1.92,4.29-4.29V4.29C249.96,1.92,248.04,0,245.68,0h-113.07c-2.33,0-4.29,1.92-4.29,4.29v86.6c3.46,14.82,5.79,24.77,5.8,24.77.02,0,1.07-4.11,2.32-9.15,1.26-5.04,2.3-9.12,2.32-9.07.02.05,5.57,22.31,12.35,49.45l12.31,49.37v.33h82.26c2.36,0,4.29-1.92,4.29-4.29v-40.1c0-2.36-1.92-4.29-4.29-4.29h-64.4c-2.36,0-4.29-1.92-4.29-4.29v-16.71c0-2.36,1.92-4.29,4.29-4.29h49.58c2.36,0,4.29-1.92,4.29-4.29v-40.1c0-2.36-1.92-4.29-4.29-4.29h-49.58c-2.36,0-4.29-1.92-4.29-4.29v-16.74c0-2.36,1.92-4.29,4.29-4.29Z"/>
    </g>
  </g>
</svg>